# xmcd
#
# Track frame offsets: 
#        150
#        8999
#        19459
#        30234
#        41626
#        53394
#        64751
#        76120
#        87776
#        99495
#        110827
#        122295
#        133454
#        147174
#        157597
#        168190
#
# Disc length: 2434 seconds
#
# Revision: 1
# Processed by: cddbd v1.5.2PL0 Copyright (c) Steve Scherf et al.
# Submitted via: ExactAudioCopy v1.0b1
#
DISCID=bd098010
DTITLE=B.B. King - The Modern Recordings 1950-1951 [CD2]
DYEAR=2002
DGENRE=Blues
TTITLE0=A New Way Of Driving (mono)
TTITLE1=Fine Lookin' Woman (take 1) (mono)
TTITLE2=Fine Lookin' Woman (take 2) (mono)
TTITLE3=Fine Lookin' Woman (take 3) (mono)
TTITLE4=Shake It Up And Go (mono)
TTITLE5=She's Dynamite (mono)
TTITLE6=She's A Mean Woman (take 1) (mono)
TTITLE7=She's A Mean Woman (take 2) (mono)
TTITLE8=Hard Workin' Woman (take 1) (mono)
TTITLE9=Hard Workin' Woman (take 2) (mono)
TTITLE10=Pray For You (take 1) (mono)
TTITLE11=Pray For You (take 2) (mono)
TTITLE12=3 O'Clock Blues (mono)
TTITLE13=That Ain't The Way To Do It (mono)
TTITLE14=That Ain't The Way To Do It (alt) (mono)
TTITLE15=She Don't Move Me No More (mono)
EXTD=
EXTT0=
EXTT1=
EXTT2=
EXTT3=
EXTT4=
EXTT5=
EXTT6=
EXTT7=
EXTT8=
EXTT9=
EXTT10=
EXTT11=
EXTT12=
EXTT13=
EXTT14=
EXTT15=
PLAYORDER=
